<?xml version="1.0" encoding="UTF-8" standalone="no"?>
<svg
   xmlns:dc="http://purl.org/dc/elements/1.1/"
   xmlns:cc="http://creativecommons.org/ns#"
   xmlns:rdf="http://www.w3.org/1999/02/22-rdf-syntax-ns#"
   xmlns:svg="http://www.w3.org/2000/svg"
   xmlns="http://www.w3.org/2000/svg"
   xmlns:sodipodi="http://sodipodi.sourceforge.net/DTD/sodipodi-0.dtd"
   xmlns:inkscape="http://www.inkscape.org/namespaces/inkscape"
   width="32"
   height="32"
   viewBox="0 0 32 32"
   fill="none"
   version="1.1"
   id="svg25113"
   sodipodi:docname="fb_hb.svg"
   inkscape:version="1.0.2-2 (e86c870879, 2021-01-15)">
  <metadata
     id="metadata25119">
    <rdf:RDF>
      <cc:Work
         rdf:about="">
        <dc:format>image/svg+xml</dc:format>
        <dc:type
           rdf:resource="http://purl.org/dc/dcmitype/StillImage" />
        <dc:title></dc:title>
      </cc:Work>
    </rdf:RDF>
  </metadata>
  <defs
     id="defs25117" />
  <sodipodi:namedview
     pagecolor="#505050"
     bordercolor="#eeeeee"
     borderopacity="1"
     objecttolerance="10"
     gridtolerance="10"
     guidetolerance="10"
     inkscape:pageopacity="0"
     inkscape:pageshadow="2"
     inkscape:window-width="640"
     inkscape:window-height="480"
     id="namedview25115"
     showgrid="false"
     inkscape:zoom="16.931351"
     inkscape:cx="15.270617"
     inkscape:cy="17.147138"
     inkscape:current-layer="svg25113"
     inkscape:document-rotation="0" />
  <path
     id="path25109"
     d="M 15.800781 0 C 7.1679612 -1.1842379e-15 0.171875 7.0309081 0.171875 15.705078 C 0.171875 24.378478 7.1679612 31.410156 15.800781 31.410156 C 24.432681 31.410156 31.431641 24.378478 31.431641 15.705078 C 31.431641 7.0309081 24.432681 0 15.800781 0 z M 17.523438 6.2148438 L 20.158203 6.2148438 L 20.158203 9.5429688 L 18.099609 9.5429688 C 17.372809 9.5429688 17.220703 9.8416963 17.220703 10.597656 L 17.220703 12.421875 L 20.158203 12.421875 L 19.876953 15.626953 L 17.220703 15.626953 L 17.220703 25.201172 L 13.416016 25.201172 L 13.416016 15.667969 L 11.4375 15.667969 L 11.4375 12.421875 L 13.416016 12.421875 L 13.416016 9.8671875 C 13.416016 7.4690075 14.692338 6.2148438 17.523438 6.2148438 z "
     style="fill:#8e8681;fill-opacity:1" />
</svg>
