<?xml version="1.0" encoding="UTF-8" standalone="no"?>
<svg
   xmlns:dc="http://purl.org/dc/elements/1.1/"
   xmlns:cc="http://creativecommons.org/ns#"
   xmlns:rdf="http://www.w3.org/1999/02/22-rdf-syntax-ns#"
   xmlns:svg="http://www.w3.org/2000/svg"
   xmlns="http://www.w3.org/2000/svg"
   xmlns:sodipodi="http://sodipodi.sourceforge.net/DTD/sodipodi-0.dtd"
   xmlns:inkscape="http://www.inkscape.org/namespaces/inkscape"
   width="32"
   height="32"
   viewBox="0 0 32 32"
   fill="none"
   version="1.1"
   id="svg25733"
   sodipodi:docname="ig_hb.svg"
   inkscape:version="1.0.2-2 (e86c870879, 2021-01-15)">
  <metadata
     id="metadata25739">
    <rdf:RDF>
      <cc:Work
         rdf:about="">
        <dc:format>image/svg+xml</dc:format>
        <dc:type
           rdf:resource="http://purl.org/dc/dcmitype/StillImage" />
        <dc:title></dc:title>
      </cc:Work>
    </rdf:RDF>
  </metadata>
  <defs
     id="defs25737" />
  <sodipodi:namedview
     pagecolor="#505050"
     bordercolor="#eeeeee"
     borderopacity="1"
     objecttolerance="10"
     gridtolerance="10"
     guidetolerance="10"
     inkscape:pageopacity="0"
     inkscape:pageshadow="2"
     inkscape:window-width="640"
     inkscape:window-height="480"
     id="namedview25735"
     showgrid="false"
     inkscape:zoom="25.548047"
     inkscape:cx="16"
     inkscape:cy="16"
     inkscape:current-layer="svg25733"
     inkscape:document-rotation="0" />
  <path
     id="path25725"
     d="M 16.369141 0 C 7.7372106 -1.1842379e-15 0.74023438 7.0309081 0.74023438 15.705078 C 0.74023437 24.378478 7.7372106 31.410156 16.369141 31.410156 C 25.001941 31.410156 32 24.378478 32 15.705078 C 32 7.0309081 25.001941 0 16.369141 0 z M 16.371094 7.09375 C 18.698694 7.09375 18.990197 7.1043944 19.904297 7.1464844 C 20.816797 7.1885644 21.438975 7.333965 21.984375 7.546875 C 22.547775 7.767225 23.025553 8.0623756 23.501953 8.5410156 C 23.979153 9.0196656 24.270934 9.4983232 24.490234 10.064453 C 24.702134 10.612453 24.846772 11.23945 24.888672 12.15625 C 24.930472 13.07475 24.941406 13.366278 24.941406 15.705078 C 24.941406 18.043778 24.930472 18.337359 24.888672 19.255859 C 24.846772 20.172759 24.702134 20.797703 24.490234 21.345703 C 24.270934 21.911803 23.979153 22.392494 23.501953 22.871094 C 23.025553 23.349794 22.547775 23.644934 21.984375 23.865234 C 21.438975 24.077334 20.816797 24.223525 19.904297 24.265625 C 18.990197 24.306925 18.698694 24.316406 16.371094 24.316406 C 14.043494 24.316406 13.751991 24.306925 12.837891 24.265625 C 11.926191 24.223525 11.301159 24.077334 10.755859 23.865234 C 10.192459 23.644934 9.7146414 23.349794 9.2382812 22.871094 C 8.7619213 22.392494 8.46847 21.911803 8.25 21.345703 C 8.0381 20.797703 7.8926225 20.172759 7.8515625 19.255859 C 7.8096725 18.337359 7.8007812 18.043778 7.8007812 15.705078 C 7.8007812 13.366278 7.8096725 13.07475 7.8515625 12.15625 C 7.8926225 11.23945 8.0381 10.612453 8.25 10.064453 C 8.46847 9.4983232 8.7619213 9.0196656 9.2382812 8.5410156 C 9.7146413 8.0623756 10.192459 7.767225 10.755859 7.546875 C 11.301159 7.333965 11.926191 7.1885644 12.837891 7.1464844 C 13.751991 7.1043944 14.043494 7.09375 16.371094 7.09375 z M 16.371094 8.6464844 C 14.082994 8.6464844 13.811603 8.6560056 12.908203 8.6972656 C 12.072903 8.7360556 11.618606 8.8761306 11.316406 8.9941406 C 10.916406 9.1501106 10.631831 9.3354986 10.332031 9.6367188 C 10.032331 9.9379386 9.8446731 10.225053 9.6894531 10.626953 C 9.5720031 10.930653 9.4323112 11.386463 9.3945312 12.226562 C 9.3534613 13.134364 9.3457031 13.405878 9.3457031 15.705078 C 9.3457031 18.004178 9.3534613 18.277847 9.3945312 19.185547 C 9.4323113 20.025647 9.5720031 20.481456 9.6894531 20.785156 C 9.8446731 21.187056 10.032331 21.473291 10.332031 21.775391 C 10.631831 22.076591 10.916406 22.261969 11.316406 22.417969 C 11.618606 22.535969 12.072903 22.676944 12.908203 22.714844 C 13.811603 22.756144 14.082994 22.765625 16.371094 22.765625 C 18.660094 22.765625 18.929684 22.756144 19.833984 22.714844 C 20.669284 22.676944 21.121528 22.535969 21.423828 22.417969 C 21.823728 22.261969 22.110456 22.076591 22.410156 21.775391 C 22.709956 21.473291 22.895481 21.187056 23.050781 20.785156 C 23.168181 20.481456 23.307103 20.025647 23.345703 19.185547 C 23.386803 18.277847 23.396484 18.004178 23.396484 15.705078 C 23.396484 13.405878 23.386803 13.134362 23.345703 12.226562 C 23.307103 11.386463 23.168181 10.930653 23.050781 10.626953 C 22.895481 10.225053 22.709956 9.9379386 22.410156 9.6367188 C 22.110456 9.3354987 21.823728 9.1501106 21.423828 8.9941406 C 21.121528 8.8761306 20.669284 8.7360556 19.833984 8.6972656 C 18.929684 8.6560056 18.659294 8.6464844 16.371094 8.6464844 z M 20.943359 10.080078 C 21.511659 10.080078 21.972656 10.542281 21.972656 11.113281 C 21.972656 11.683581 21.511659 12.146484 20.943359 12.146484 C 20.375759 12.146484 19.916016 11.683581 19.916016 11.113281 C 19.916016 10.542281 20.375759 10.080078 20.943359 10.080078 z M 16.369141 11.28125 C 18.800141 11.28125 20.769531 13.261225 20.769531 15.703125 C 20.769531 18.145025 18.800141 20.125 16.369141 20.125 C 13.938841 20.125 11.96875 18.145025 11.96875 15.703125 C 11.96875 13.261225 13.938841 11.28125 16.369141 11.28125 z M 16.369141 12.832031 C 14.791341 12.832031 13.511719 14.117825 13.511719 15.703125 C 13.511719 17.288425 14.791341 18.574219 16.369141 18.574219 C 17.946841 18.574219 19.224609 17.288425 19.224609 15.703125 C 19.224609 14.117825 17.946841 12.832031 16.369141 12.832031 z "
     style="fill:#f5f1ea;fill-opacity:1" />
</svg>
